# xmcd CD database file
#
# Track frame offsets:
#	150
#	23107
#	56565
#	88205
#	112720
#	167835
#	187360
#	214860
#	244037
#	266732
#	291510
#
# Disc length: 4315 seconds
#
# Revision: 0
# Processed by: cddbd v1.5PL3 Copyright (c) Steve Scherf et al.
# Submitted via: Feurio! 1.66 - http://www.feurio.com
#
DISCID=a610d90b
DTITLE=George Thorogood and The Destroyers - Live in '99
DYEAR=1900
DGENRE=Blues
TTITLE0=Be Bop Grandma
TTITLE1=Who Do You Love
TTITLE2=Night Time
TTITLE3=I Drink Alone
TTITLE4=One Bourbon, One Scotch, One Beer
TTITLE5=Half A Boy, Half A Man
TTITLE6=Get A Haircut
TTITLE7=Bad To The Bone
TTITLE8=Move It On Over
TTITLE9=I Don't Trust Nobody
TTITLE10=You Talk Too Much
EXTD=
EXTT0=
EXTT1=
EXTT2=
EXTT3=
EXTT4=
EXTT5=
EXTT6=
EXTT7=
EXTT8=
EXTT9=
EXTT10=
PLAYORDER=
